<svg height="512pt" viewBox="-46 0 511 512" width="512pt" xmlns="http://www.w3.org/2000/svg"><g fill-rule="evenodd"><path d="m97.863281 87.863281v70.933594c0 42.8125 63.238281 41.945313 63.238281 0v-70.933594h130.800782c-8.308594-44.316406-47.167969-77.863281-93.84375-77.863281-21.695313 0-41.6875 7.21875-57.699219 19.429688-7.960937-2.800782-16.503906-4.300782-25.417969-4.300782-37.617187 0-68.945312 27.019532-75.609375 62.730469h58.53125zm0 0" fill="#e8e7e9"/><path d="m320.289062 139.566406h-159.1875v19.230469c0 41.945313-63.238281 42.8125-63.238281 0v-19.230469h-86.863281v304.78125c0 36.316406 29.6875 57.652344 65.976562 57.652344h177.308594c36.292969 0 66.003906-21.335938 66.003906-57.652344zm0 0" fill="#ffc15a"/><path d="m161.101562 139.566406h159.1875v-23.355468c0-15.589844-12.75-28.347657-28.328124-28.347657h-130.859376zm0 0" fill="#f9f9f9"/><path d="m320.289062 170.113281v40.675781h24.03125c14.773438 0 26.859376 12.125 26.886719 26.90625l.144531 115.367188c0 14.78125-12.117187 26.90625-26.914062 26.90625h-24.148438v43.042969h32.773438c30.753906 0 55.964844-25.203125 55.9375-56.007813l-.144531-140.914062c-.027344-30.773438-25.183594-55.976563-55.9375-55.976563zm0 0" fill="#f9f9f9"/><path d="m97.863281 139.566406v-51.703125h-58.53125c-15.578125 0-28.332031 12.757813-28.332031 28.347657v23.355468zm0 0" fill="#f9f9f9"/><path d="m320.289062 170.113281v40.675781h24.03125c14.773438 0 26.859376 12.125 26.886719 26.90625l.144531 115.367188c0 14.78125-12.117187 26.90625-26.914062 26.90625h-24.148438v43.042969h32.773438c30.753906 0 55.964844-25.203125 55.9375-56.007813l-.144531-140.914062c-.027344-30.773438-25.183594-55.976563-55.9375-55.976563zm0 0" fill="#f9f9f9"/><path d="m241.503906 249.214844c0-12.789063-10.359375-23.152344-23.136718-23.152344-12.78125 0-23.167969 10.363281-23.167969 23.152344 0 12.820312 10.386719 23.183594 23.167969 23.183594s23.136718-10.363282 23.136718-23.183594zm0 0" fill="#ffd89e"/><path d="m172.554688 367.957031c0-12.789062-10.355469-23.152343-23.136719-23.152343s-23.164063 10.363281-23.164063 23.152343c0 12.789063 10.382813 23.152344 23.164063 23.152344s23.136719-10.363281 23.136719-23.152344zm0 0" fill="#ffd89e"/></g><path d="m419.355469 226.09375c-.035157-36.414062-29.710938-66.035156-66.15625-66.035156h-22.585938v-43.796875c0-18.378907-12.992187-33.777344-30.292969-37.539063-12.089843-46.035156-53.949218-78.722656-102.285156-78.722656-21.5625 0-42.0625 6.332031-59.617187 18.363281-7.648438-2.152343-15.582031-3.242187-23.660157-3.242187-39.425781 0-73.617187 26.335937-83.992187 63.605468-17.28125 3.773438-30.265625 19.164063-30.265625 37.535157v155.09375c0 5.570312 4.523438 10.082031 10.109375 10.082031 5.582031 0 10.105469-4.511719 10.105469-10.082031v-121.664063h66.820312v9.136719c0 27.484375 20.898438 41.859375 41.546875 41.859375 20.886719 0 42.03125-14.375 42.03125-41.859375v-9.136719h139.285157v294.589844c0 32.847656-28.140626 47.550781-56.027344 47.550781h-177.65625c-17.859375 0-33.316406-5.621093-43.523438-15.828125-8.308594-8.3125-12.503906-18.976562-12.472656-31.695312l.203125-81.097656c.011719-5.570313-4.503906-10.097657-10.085937-10.109376-.007813 0-.015626 0-.023438 0-5.570312 0-10.09375 4.5-10.109375 10.058594l-.203125 81.097656c-.042969 18.019532 6.3125 33.921876 18.378906 45.988282 14.027344 14.027344 34.566406 21.753906 57.835938 21.753906h177.65625c20.554687 0 39.425781-6.21875 53.136718-17.507812 14.902344-12.269532 23.105469-30.101563 23.105469-50.210938v-11.242188h22.730469c17.609375 0 34.207031-6.890624 46.742188-19.402343 12.535156-12.519531 19.429687-29.097657 19.414062-46.683594zm-88.742188-5.203125h13.972657c9.261718 0 16.8125 7.550781 16.832031 16.824219l.144531 115.3125c0 9.273437-7.5625 16.8125-16.859375 16.8125h-14.089844zm-309.894531-91.367187v-13.261719c0-10.066407 8.199219-18.257813 18.277344-18.257813h48.539062v31.519532zm130.179688 29.304687c0 17.125-13.714844 21.691406-21.816407 21.691406-9.839843 0-21.328125-5.679687-21.328125-21.691406v-70.90625c0-5.570313-4.527344-10.085937-10.109375-10.085937h-45.308593c9.835937-25.242188 34.410156-42.542969 62.421874-42.542969 7.621094 0 15.058594 1.253906 22.109376 3.726562 3.214843 1.128907 6.777343.566407 9.484374-1.492187 14.921876-11.355469 32.792969-17.355469 51.683594-17.355469 36.960938 0 69.261719 23.621094 80.941406 57.664063h-117.972656c-5.582031 0-10.105468 4.515624-10.105468 10.085937zm20.214843-29.304687v-31.519532h120.949219.03125.027344c10.078125 0 18.277344 8.191406 18.277344 18.257813v13.261719zm214.671875 269.855468c-8.714844 8.699219-20.234375 13.492188-32.441406 13.492188h-22.730469v-22.859375h14.089844c20.441406 0 37.074219-16.589844 37.074219-36.996094l-.144532-115.332031c-.039062-20.382813-16.660156-36.960938-37.046874-36.960938h-13.972657v-20.496094h22.585938c25.308593 0 45.917969 20.582032 45.941406 45.886719l.144531 140.863281c.011719 12.191407-4.78125 23.699219-13.5 32.402344zm0 0"/><path d="m182.589844 367.917969c0-18.324219-14.933594-33.230469-33.292969-33.230469-18.355469 0-33.289063 14.90625-33.289063 33.230469s14.933594 33.230469 33.289063 33.230469 33.292969-14.90625 33.292969-33.230469zm-46.367188 0c0-7.203125 5.867188-13.058594 13.078125-13.058594 7.207031 0 13.074219 5.859375 13.074219 13.058594 0 7.203125-5.867188 13.0625-13.074219 13.0625-7.210937 0-13.078125-5.859375-13.078125-13.0625zm0 0"/><path d="m251.671875 249.21875c0-18.324219-14.933594-33.230469-33.289063-33.230469-18.371093 0-33.320312 14.90625-33.320312 33.230469 0 18.339844 14.949219 33.257812 33.320312 33.257812 18.355469 0 33.289063-14.917968 33.289063-33.257812zm-46.390625 0c0-7.203125 5.878906-13.0625 13.101562-13.0625 7.210938 0 13.074219 5.859375 13.074219 13.0625 0 7.21875-5.863281 13.089844-13.074219 13.089844-7.222656 0-13.101562-5.871094-13.101562-13.089844zm0 0"/><path d="m10.609375 327.84375c5.582031 0 10.105469-4.515625 10.105469-10.082031v-.203125c0-5.570313-4.523438-10.085938-10.105469-10.085938-5.585937 0-10.109375 4.515625-10.109375 10.085938v.203125c0 5.566406 4.527344 10.082031 10.109375 10.082031zm0 0"/></svg>