<svg height="512pt" viewBox="-170 0 512 512" width="512pt" xmlns="http://www.w3.org/2000/svg"><path d="m117.140625 42.289062 5.621094 112.402344c.582031 11.636719 4.277343 22.90625 10.703125 32.628906l15.945312 24.140626c9.378906 14.191406 14.378906 30.828124 14.378906 47.839843v224.515625c0 11.382813-9.226562 20.609375-20.609374 20.609375h-114.992188c-11.382812 0-20.613281-9.226562-20.613281-20.609375v-224.515625c0-17.011719 5-33.648437 14.378906-47.84375l15.945313-24.136719c6.425781-9.722656 10.121093-20.992187 10.703124-32.632812l5.621094-112.398438zm0 0" fill="#6dc54a"/><path d="m85.816406 42.289062h28.070313c5.992187 0 10.847656-4.855468 10.847656-10.847656v-13.019531c0-5.992187-4.855469-10.847656-10.847656-10.847656h-56.410157c-5.992187 0-10.847656 4.855469-10.847656 10.847656v13.019531c0 5.988282 4.855469 10.847656 10.847656 10.847656zm0 0" fill="#ffe046"/><path d="m149.414062 211.457031-15.949218-24.136719c-6.425782-9.722656-10.121094-20.992187-10.703125-32.632812l-5.617188-112.398438h-62.921875l-1.085937 21.695313h35.804687c5.445313 0 9.90625 4.316406 10.09375 9.753906l3.117188 91.136719c.582031 11.636719 4.277344 22.90625 10.703125 32.628906l15.945312 24.140625c9.378907 14.191407 14.378907 30.828125 14.378907 47.839844v234.941406c11.382812 0 20.609374-9.226562 20.609374-20.609375v-224.515625c0-17.011719-5-33.648437-14.375-47.84375zm0 0" fill="#5db33a"/><path d="m48.839844 149.964844h73.6875l-3.332032-66.652344h-67.023437zm0 0" fill="#495959"/><path d="m99.359375 83.3125 2.28125 66.652344h20.886719l-3.332032-66.652344zm0 0" fill="#3f4a4a"/><path d="m113.886719 7.574219h-18.441407c5.992188 0 10.847657 4.855469 10.847657 10.847656v13.019531c0 5.988282-4.855469 10.847656-10.847657 10.847656h18.441407c5.992187 0 10.847656-4.859374 10.847656-10.847656v-13.019531c0-5.992187-4.855469-10.847656-10.847656-10.847656zm0 0" fill="#eec707"/><path d="m113.957031 437.773438h-56.550781c-11.15625 0-20.195312-9.042969-20.195312-20.195313v-141.382813c0-11.152343 9.042968-20.195312 20.195312-20.195312h56.550781c11.15625 0 20.199219 9.042969 20.199219 20.195312v141.382813c0 11.15625-9.042969 20.195313-20.199219 20.195313zm0 0" fill="#ffe046"/><path d="m155.734375 207.28125-15.949219-24.136719c-5.675781-8.585937-8.945312-18.554687-9.460937-28.832031l-5.40625-108.152344c4.476562-3.363281 7.390625-8.699218 7.390625-14.71875v-13.019531c0-10.15625-8.261719-18.421875-18.421875-18.421875h-56.410157c-10.160156 0-18.421874 8.265625-18.421874 18.421875v13.019531c0 6.019532 2.914062 11.355469 7.390624 14.71875l-5.40625 108.152344c-.515624 10.277344-3.785156 20.25-9.457031 28.832031l-15.949219 24.136719c-10.226562 15.480469-15.632812 33.464844-15.632812 52.019531v84.019531c0 4.183594 3.390625 7.574219 7.574219 7.574219 4.183593 0 7.574219-3.390625 7.574219-7.574219v-84.019531c0-15.574219 4.539062-30.671875 13.121093-43.667969l15.949219-24.136718c6.710938-10.15625 10.761719-21.847656 11.78125-33.957032h59.363281c1.023438 12.105469 5.070313 23.796876 11.78125 33.957032l15.949219 24.136718c8.585938 12.992188 13.121094 28.09375 13.121094 43.667969v84.019531c0 4.183594 3.390625 7.574219 7.574218 7.574219 4.183594 0 7.574219-3.390625 7.574219-7.574219v-84.019531c0-18.554687-5.40625-36.539062-15.628906-52.019531zm-45.796875-157.417969 1.292969 25.875h-51.097657l1.292969-25.875zm-50.5625 41.023438h52.613281l2.578125 51.503906h-57.765625zm-5.171875-72.464844c0-1.804687 1.46875-3.273437 3.273437-3.273437h56.410157c1.804687 0 3.273437 1.46875 3.273437 3.273437v13.019531c0 1.804688-1.46875 3.273438-3.273437 3.273438h-56.410157c-1.804687 0-3.273437-1.46875-3.273437-3.273438zm0 0"/><path d="m163.789062 371.21875c-4.183593 0-7.574218 3.390625-7.574218 7.574219v105.023437c0 7.1875-5.847656 13.035156-13.035156 13.035156h-114.992188c-7.191406 0-13.039062-5.847656-13.039062-13.035156v-105.023437c0-4.183594-3.390626-7.574219-7.574219-7.574219-4.183594 0-7.574219 3.390625-7.574219 7.574219v105.023437c0 15.539063 12.644531 28.183594 28.1875 28.183594h114.992188c15.539062 0 28.183593-12.644531 28.183593-28.183594v-105.023437c0-4.183594-3.390625-7.574219-7.574219-7.574219zm0 0"/><path d="m57.40625 263.574219h10.5625c4.183594 0 7.574219-3.390625 7.574219-7.574219s-3.390625-7.574219-7.574219-7.574219h-10.5625c-15.3125 0-27.769531 12.460938-27.769531 27.769531v141.382813c0 15.3125 12.457031 27.769531 27.769531 27.769531h56.550781c15.3125 0 27.773438-12.457031 27.773438-27.769531v-141.382813c0-15.3125-12.460938-27.769531-27.773438-27.769531h-10.632812c-4.183594 0-7.574219 3.390625-7.574219 7.574219s3.390625 7.574219 7.574219 7.574219h10.632812c6.960938 0 12.625 5.664062 12.625 12.621093v141.382813c0 6.960937-5.664062 12.621094-12.625 12.621094h-56.550781c-6.960938 0-12.625-5.660157-12.625-12.621094v-141.382813c0-6.957031 5.664062-12.621093 12.625-12.621093zm0 0"/></svg>