<?xml version="1.0" encoding="iso-8859-1"?>
<!-- Generator: Adobe Illustrator 19.0.0, SVG Export Plug-In . SVG Version: 6.00 Build 0)  -->
<svg version="1.1" id="Capa_1" xmlns="http://www.w3.org/2000/svg" xmlns:xlink="http://www.w3.org/1999/xlink" x="0px" y="0px"
	 viewBox="0 0 512 512" style="enable-background:new 0 0 512 512;" xml:space="preserve">
<path style="fill:#DE4C3C;" d="M328.533,375.467h76.8c18.85,0,34.133-15.283,34.133-34.133l0,0c0-18.85-15.283-34.133-34.133-34.133
	H371.2v-34.133h34.133c37.7,0,68.267,30.566,68.267,68.267l0,0c0,37.7-30.566,68.267-68.267,68.267h-76.8V375.467z"/>
<g>
	<path style="fill:#C94536;" d="M371.2,307.2h33.28c0.529-5.555,0.853-11.23,0.853-17.067v-17.067H371.2V307.2z"/>
	<path style="fill:#C94536;" d="M328.533,375.467V409.6h34.057c8.26-10.692,15.531-22.118,21.709-34.133H328.533z"/>
</g>
<path style="fill:#DE4C3C;" d="M89.6,503.467c-28.279,0-51.2-22.921-51.2-51.2l0,0h375.467c0,28.279-22.921,51.2-51.2,51.2l0,0H89.6
	z"/>
<path id="SVGCleanerId_0" style="fill:#DE4C3C;" d="M149.333,452.062c0,0-85.333-59.529-85.333-161.929V256h324.267v34.133
	c0,102.4-85.333,161.928-85.333,161.928L149.333,452.062z"/>
<g>
	<path id="SVGCleanerId_0_1_" style="fill:#DE4C3C;" d="M149.333,452.062c0,0-85.333-59.529-85.333-161.929V256h324.267v34.133
		c0,102.4-85.333,161.928-85.333,161.928L149.333,452.062z"/>
</g>
<path style="fill:#E5E5E5;" d="M388.267,230.4v-59.733c0-28.279-22.921-51.2-51.2-51.2h-34.133c-9.429,0-17.067-7.637-17.067-17.067
	l0,0c0-9.429,7.637-17.067,17.067-17.067H422.4c28.279,0,51.2-22.921,51.2-51.2V0H311.467v17.067
	c0,18.85-15.283,34.133-34.133,34.133h-89.6c-25.924,0-46.933,21.009-46.933,46.933l0,0c0,25.924,21.009,46.933,46.933,46.933H192
	c9.429,0,17.067,7.637,17.067,17.067l0,0c0,9.429-7.637,17.067-17.067,17.067h-76.8c-28.279,0-51.2,22.921-51.2,51.2H388.267z"/>
<path style="fill:#C94536;" d="M120.832,426.206c8.653,9.506,18.193,18.167,28.501,25.856h153.6c0,0,85.333-59.529,85.333-161.928
	V256h-16.691C300.527,358.025,178.074,407.689,120.832,426.206z"/>
<path d="M405.333,264.533H396.8V256c0-4.71-3.823-8.533-8.533-8.533H64c-4.71,0-8.533,3.823-8.533,8.533v34.133
	c0,76.288,44.501,129.152,70.596,153.6H38.4c-4.71,0-8.533,3.823-8.533,8.533C29.901,485.239,56.627,511.966,89.6,512h273.067
	c32.973-0.034,59.699-26.761,59.733-59.733c0-4.71-3.823-8.533-8.533-8.533h-87.663c8.482-7.962,16.393-16.521,23.663-25.6h55.467
	c42.419,0,76.8-34.381,76.8-76.8S447.753,264.533,405.333,264.533z M362.667,494.933H89.6
	c-20.267-0.026-37.734-14.276-41.813-34.133H404.48C400.401,480.657,382.933,494.908,362.667,494.933z M395.093,315.733h10.24
	c14.14,0,25.6,11.46,25.6,25.6s-11.46,25.6-25.6,25.6h-24.499C387.908,350.601,392.704,333.372,395.093,315.733z M300.1,443.529
	H152.166c-12.698-9.779-79.633-65.553-79.633-153.395v-25.6h307.2v25.6C379.733,377.975,312.798,433.749,300.1,443.529z
	 M405.333,401.067h-43.017c3.541-5.342,6.98-11.034,10.24-17.067h32.777C428.894,384,448,364.894,448,341.333
	s-19.106-42.667-42.667-42.667h-8.747c0.128-2.816,0.213-5.649,0.213-8.533V281.6h8.533c32.99,0,59.733,26.743,59.733,59.733
	S438.323,401.067,405.333,401.067z"/>
<path d="M115.2,187.733H192c14.14,0,25.6-11.46,25.6-25.6c0-14.14-11.46-25.6-25.6-25.6h-4.267c-21.205,0-38.4-17.195-38.4-38.4
	s17.195-38.4,38.4-38.4l0,0h89.6c23.552-0.026,42.641-19.115,42.667-42.667V0h-17.067v17.067c0,14.14-11.46,25.6-25.6,25.6h-89.6
	c-30.635,0-55.467,24.832-55.467,55.467s24.832,55.467,55.467,55.467H192c4.71,0,8.533,3.823,8.533,8.533s-3.823,8.533-8.533,8.533
	h-76.8c-32.973,0.034-59.699,26.761-59.733,59.733h17.067C72.559,206.848,91.648,187.759,115.2,187.733z"/>
<path d="M465.067,34.133C465.041,57.685,445.952,76.774,422.4,76.8H302.933c-14.14,0-25.6,11.46-25.6,25.6s11.46,25.6,25.6,25.6
	h34.133c23.552,0.026,42.641,19.115,42.667,42.667V230.4H396.8v-59.733c-0.034-32.973-26.761-59.699-59.733-59.733h-34.133
	c-4.71,0-8.533-3.823-8.533-8.533c0-4.71,3.823-8.533,8.533-8.533H422.4c32.973-0.034,59.699-26.761,59.733-59.733V0h-17.067V34.133
	z"/>
<g>
</g>
<g>
</g>
<g>
</g>
<g>
</g>
<g>
</g>
<g>
</g>
<g>
</g>
<g>
</g>
<g>
</g>
<g>
</g>
<g>
</g>
<g>
</g>
<g>
</g>
<g>
</g>
<g>
</g>
</svg>
