<?xml version="1.0" encoding="iso-8859-1"?>
<!-- Generator: Adobe Illustrator 19.0.0, SVG Export Plug-In . SVG Version: 6.00 Build 0)  -->
<svg version="1.1" id="Layer_1" xmlns="http://www.w3.org/2000/svg" xmlns:xlink="http://www.w3.org/1999/xlink" x="0px" y="0px"
	 viewBox="0 0 502.657 502.657" style="enable-background:new 0 0 502.657 502.657;" xml:space="preserve">
<path style="fill:#F2F2F2;" d="M356.199,443.038v9.502c0,23.101-46.95,41.831-104.864,41.831
	c-57.925,0-104.875-18.73-104.875-41.831v-9.502"/>
<path style="fill:#F94848;" d="M369.652,106.618V421.16c0,26.072-52.972,47.205-118.318,47.205c-19.344,0-37.594-1.845-53.723-5.126
	c-38.345-7.811-64.605-23.719-64.605-42.08V106.618L369.652,106.618L369.652,106.618z"/>
<path style="fill:#F2F2F2;" d="M369.652,106.618c0,26.072-52.972,47.205-118.318,47.205c-19.598,0-38.091-1.9-54.364-5.27
	c-38.003-7.855-63.964-23.686-63.964-41.936c0-8.109,5.126-15.754,14.174-22.426h208.298
	C364.526,90.865,369.652,98.51,369.652,106.618z"/>
<path style="fill:#DD2C2C;" d="M197.611,106.618v356.621c-38.345-7.811-64.605-23.719-64.605-42.08V106.618L197.611,106.618
	L197.611,106.618z"/>
<path style="fill:#F2F2F2;" d="M356.196,50.122v29.187c0,23.1-46.951,41.836-104.862,41.836c-12.826,0-25.1-0.917-36.456-2.596
	c-39.947-5.91-68.416-21.255-68.416-39.24V50.122L356.196,50.122L356.196,50.122z"/>
<g>
	<path style="fill:#CCCCCC;" d="M214.878,50.122v68.428c-39.947-5.91-68.416-21.255-68.416-39.24V50.122L214.878,50.122
		L214.878,50.122z"/>
	<ellipse style="fill:#CCCCCC;" cx="251.33" cy="50.121" rx="104.873" ry="41.835"/>
</g>
<path style="fill:#F2F2F2;" d="M349.642,64.705c-14.826,15.908-53.248,27.254-98.3,27.254c-45.062,0-83.485-11.346-98.311-27.254
	c14.848-15.908,53.259-27.232,98.311-27.232C296.382,37.473,334.794,48.796,349.642,64.705z"/>
<path style="fill:#CCCCCC;" d="M214.878,118.55c0,0-17.908,11.202-17.908,30.005c-38.003-7.855-63.964-23.686-63.964-41.936
	c0-8.109,5.126-15.754,14.174-22.426h22.89L214.878,118.55z"/>
<path d="M315.067,83.341c-17.19,5.259-38.577,8.44-61.81,8.606c-0.541-1.679-0.818-3.425-0.818-5.225
	c0-12.815,14.096-23.2,31.485-23.2C299.755,63.522,312.857,72.128,315.067,83.341z"/>
<path d="M377.94,106.602c-0.003-6.622-2.472-16.193-13.494-25.824c0.027-0.487,0.041-0.977,0.041-1.47V50.121
	C364.486,17.566,306.186,0,251.33,0S138.175,17.566,138.175,50.121v29.186c0,0.493,0.014,0.981,0.041,1.467
	c-11.033,9.64-13.499,19.22-13.499,25.843c0,0.046,0.003,0.093,0.003,0.14v210.856c0,4.576,3.71,8.286,8.286,8.286
	s8.286-3.71,8.286-8.286V134.899c21.421,16.538,61.758,27.215,110.043,27.215c13.089,0,25.976-0.826,38.3-2.454
	c4.536-0.599,7.729-4.764,7.129-9.3c-0.6-4.536-4.761-7.728-9.3-7.129c-11.609,1.533-23.764,2.311-36.13,2.311
	c-30.578,0-59.203-4.702-80.601-13.239c-18.438-7.356-29.446-16.959-29.446-25.686c0-3.31,1.561-6.42,3.745-9.157
	c16.969,20.881,62.718,31.969,106.297,31.969c43.58,0,89.329-11.088,106.298-31.969c2.184,2.738,3.741,5.848,3.741,9.158
	c0,10.786-16.718,22.632-42.591,30.181c-4.394,1.281-6.915,5.882-5.633,10.274c1.056,3.618,4.361,5.967,7.95,5.967
	c0.768,0,1.55-0.108,2.324-0.334c15.95-4.654,28.76-10.728,37.95-17.797v286.251c0,8.726-11.005,18.328-29.441,25.682
	c-21.395,8.535-50.018,13.236-80.598,13.236c-62.98,0-110.039-20.547-110.039-38.918v-75.929c0-4.576-3.71-8.286-8.286-8.286
	s-8.286,3.71-8.286,8.286v75.929c0,9.399,4.806,18.111,13.454,25.715v5.665c0,32.552,58.303,50.116,113.161,50.116
	c54.851,0,113.148-17.564,113.148-50.116v-5.662c8.65-7.605,13.458-16.318,13.458-25.718V106.616
	C377.941,106.612,377.94,106.607,377.94,106.602z M251.331,16.571c59.84,0,96.585,19.541,96.585,33.55
	c0,0.66-0.108,1.335-0.27,2.015c-19.943-14.151-56.052-22.954-96.312-22.954c-14.537,0-28.664,1.132-41.987,3.365
	c-4.513,0.757-7.559,5.029-6.802,9.542c0.757,4.513,5.028,7.561,9.542,6.802c12.421-2.082,25.624-3.137,39.247-3.137
	c35.225,0,68.292,7.543,85.371,18.925c-4.422,2.945-10.092,5.787-16.915,8.336c-6.427-10.674-20.12-17.779-35.866-17.779
	c-20.956,0-37.642,12.212-39.579,28.333c-36.833-0.958-64.121-9.39-78.386-18.89c4.67-3.102,10.614-5.991,17.612-8.532
	c4.302-1.562,6.521-6.316,4.959-10.617c-1.562-4.302-6.314-6.522-10.617-4.959c-9.145,3.322-16.802,7.185-22.906,11.533
	c-0.157-0.671-0.262-1.336-0.262-1.986C154.746,36.112,191.49,16.571,251.331,16.571z M302.672,78.144
	c-11.804,2.795-25.675,4.746-41.35,5.334c2.377-6.585,11.756-11.67,22.603-11.67C292.057,71.808,298.631,74.515,302.672,78.144z
	 M251.331,112.857c-59.84,0-96.585-19.541-96.585-33.55v-2.129c21.223,15.115,59.682,23.065,96.585,23.065
	s75.362-7.951,96.585-23.065v2.129C347.915,93.316,311.172,112.857,251.331,112.857z M251.335,486.085
	c-51.051,0-85.271-14.217-94.232-27.092c22.819,10.976,56.038,17.655,94.228,17.655c38.188,0,71.403-6.678,94.222-17.652
	C336.591,471.87,302.376,486.085,251.335,486.085z"/>
<g>
</g>
<g>
</g>
<g>
</g>
<g>
</g>
<g>
</g>
<g>
</g>
<g>
</g>
<g>
</g>
<g>
</g>
<g>
</g>
<g>
</g>
<g>
</g>
<g>
</g>
<g>
</g>
<g>
</g>
</svg>
