<svg height="511pt" viewBox="1 -36 511.999 511" width="511pt" xmlns="http://www.w3.org/2000/svg"><path d="m476.054688 230.105469h-440.109376v-196.816407c0-13.984374 11.335938-25.320312 25.320313-25.320312h389.46875c13.984375 0 25.320313 11.335938 25.320313 25.320312zm0 0" fill="#d1a190"/><path d="m476.054688 33.285156v196.816406h-34.859376v-196.816406c0-13.980468-11.34375-25.320312-25.324218-25.320312h34.863281c13.980469 0 25.320313 11.339844 25.320313 25.320312zm0 0" fill="#c78e7a"/><path d="m24.882812 282.117188 21.234376 124.5c2.582031 15.136718 15.699218 26.207031 31.054687 26.207031h56.496094c15.355469 0 28.472656-11.070313 31.054687-26.207031l8.417969-49.359376c1.453125-8.519531 13.683594-8.519531 15.136719 0l8.417968 49.359376c2.582032 15.136718 15.699219 26.207031 31.054688 26.207031h56.496094c15.355468 0 28.472656-11.070313 31.054687-26.207031l8.417969-49.359376c1.453125-8.519531 13.683594-8.519531 15.136719 0l8.417969 49.359376c2.582031 15.136718 15.699218 26.207031 31.054687 26.207031h56.496094c15.355469 0 28.472656-11.070313 31.054687-26.207031l21.234375-124.5zm0 0" fill="#d1a190"/><path d="m487.121094 282.121094-21.242188 124.492187c-2.578125 15.136719-15.691406 26.207031-31.046875 26.207031h-32.394531c15.355469 0 28.46875-11.070312 31.058594-26.207031l21.230468-124.492187zm0 0" fill="#c78e7a"/><path d="m499.554688 282.117188h-487.109376c-2.746093 0-4.976562-2.230469-4.976562-4.976563v-42.0625c0-2.75 2.230469-4.980469 4.976562-4.980469h487.109376c2.746093 0 4.976562 2.230469 4.976562 4.980469v42.0625c0 2.75-2.226562 4.976563-4.976562 4.976563zm0 0" fill="#f9efef"/><path d="m499.554688 282.117188h-23.496094v-52.019532h23.496094c2.75 0 4.976562 2.230469 4.976562 4.980469v42.0625c0 2.75-2.226562 4.976563-4.976562 4.976563zm0 0" fill="#efe2dd"/><g fill="#f9b276"><path d="m101.816406 132.667969s-65.445312-7.269531-77.078125 97.4375h154.15625c-11.636719-104.707031-77.078125-97.4375-77.078125-97.4375zm0 0"/><path d="m254.398438 132.574219c-10.105469-.289063-64.921876 2.558593-75.476563 97.53125h154.15625c-10.550781-94.972657-65.371094-97.820313-75.476563-97.53125-1.070312.03125-2.128906.03125-3.203124 0zm0 0"/><path d="m410.183594 132.667969s-65.441406-7.269531-77.078125 97.4375h154.15625c-11.632813-104.707031-77.078125-97.4375-77.078125-97.4375zm0 0"/></g><path d="m178.898438 230.101562h-37.523438c-7.578125-68.261718-38.039062-88.933593-58.3125-95.046874 10.824219-3.265626 18.75-2.390626 18.75-2.390626s65.445312-7.269531 77.085938 97.4375zm0 0" fill="#efa065"/><path d="m333.074219 230.101562h-37.511719c-7.578125-68.261718-38.039062-88.933593-58.3125-95.046874 8.117188-2.449219 14.605469-2.570313 17.34375-2.476563 1.003906.035156 2.003906.023437 3.011719-.007813 10.113281-.289062 64.921875 2.570313 75.46875 97.53125zm0 0" fill="#efa065"/><path d="m487.257812 230.101562h-37.507812c-7.578125-68.261718-38.039062-88.933593-58.316406-95.046874 10.824218-3.265626 18.753906-2.390626 18.753906-2.390626s65.441406-7.269531 77.070312 97.4375zm0 0" fill="#efa065"/><path d="m507.019531 222.628906h-13.175781c-2.265625-16.300781-5.890625-29.832031-10.320312-41.054687v-148.285157c0-18.078124-14.707032-32.789062-32.789063-32.789062h-389.46875c-18.078125 0-32.789063 14.710938-32.789063 32.789062v12.503907c0 4.125 3.34375 7.46875 7.46875 7.46875s7.46875-3.34375 7.46875-7.46875v-12.503907c0-9.84375 8.007813-17.851562 17.851563-17.851562h389.46875c9.847656 0 17.855469 8.007812 17.855469 17.851562v121.316407c-6.699219-8.730469-13.78125-14.714844-20.234375-18.796875-22.648438-14.328125-53.632813-14.363282-76.339844 0-20.300781 12.84375-32.085937 34.386718-38.886719 56.460937-3.484375-11.390625-7.949218-21.460937-13.375-30.117187-2.191406-3.492188-6.800781-4.550782-10.296875-2.359375-3.492187 2.191406-4.550781 6.800781-2.359375 10.292969 8.449219 13.476562 14.316406 31.121093 17.488282 52.542968h-137.167969c4.289062-29.035156 15.21875-63.144531 43.546875-77.1875 15.042968-7.460937 29.964844-7.765625 45.523437-1.902344 2.339844.882813 6.851563 2.863282 8.992188 4.429688 3.328125 2.429688 8 1.707031 10.4375-1.621094 2.433593-3.332031 1.707031-8.003906-1.625-10.4375-4.480469-3.277344-11.738281-6.046875-12.492188-6.328125-13.09375-4.90625-28.242187-5.980469-41.929687-2.921875-7.804688 1.742188-15.28125 4.875-22.039063 9.148438-20.320312 12.855468-32.109375 34.425781-38.90625 56.519531-9.785156-31.789063-25.691406-48.136719-38.941406-56.519531-23.1875-14.667969-53.214844-14.628906-76.339844 0-7.996093 5.058594-14.660156 11.476562-20.234375 18.738281v-74.980469c0-4.125-3.34375-7.46875-7.464844-7.46875-4.125 0-7.46875 3.34375-7.46875 7.46875v102.050782c-5.339843 13.613281-8.5 27.953124-10.324218 41.011718h-13.171875c-2.75 0-4.980469 2.230469-4.980469 4.980469v56.996094c0 2.75 2.230469 4.980469 4.980469 4.980469h13.601562l20.175781 118.285156c3.203126 18.785156 19.359376 32.421875 38.414063 32.421875h56.496094c19.058593 0 35.214843-13.636719 38.417969-32.421875l8.417968-49.359375c.011719-.066407.023438-.117188.035156-.15625.097657-.023438.246094-.023438.34375 0 .011719.039062.023438.089843.035157.15625l8.417969 49.359375c3.203124 18.785156 19.359374 32.421875 38.414062 32.421875h56.5c19.054688 0 35.210938-13.636719 38.414062-32.421875l8.417969-49.359375c.011719-.066407.023438-.117188.035157-.15625.097656-.023438.246093-.023438.34375 0 .011718.039062.023437.089843.035156.15625l8.417968 49.359375c3.203126 18.785156 19.359376 32.421875 38.414063 32.421875h56.5c19.054687 0 35.210937-13.636719 38.414063-32.421875l20.175781-118.285156h13.601562c2.75 0 4.980469-2.230469 4.980469-4.980469v-56.996094c0-2.75-2.230469-4.980469-4.980469-4.980469zm-97.621093-82.894531c11.746093-.121094 23.535156 3.308594 33.25 10.136719 8.960937 6.300781 15.949218 15.015625 21.207031 24.554687 3.664062 6.640625 6.519531 13.703125 8.800781 20.925781.777344 2.460938 6.3125 27.277344 6.113281 27.277344-.027343 0-137.167969 0-137.167969 0 4.261719-28.859375 15.050782-62.65625 42.988282-76.902344 7.699218-3.929687 16.242187-5.90625 24.808594-5.992187zm-308.367188.078125c10.878906-.09375 21.804688 2.824219 30.96875 8.621094 19.835938 12.546875 33.03125 38.109375 38.394531 74.195312h-137.164062c4.242187-28.707031 14.910156-62.25 42.519531-76.660156 7.765625-4.050781 16.507812-6.082031 25.28125-6.15625zm357.488281 265.550781c-1.976562 11.582031-11.9375 19.992188-23.691406 19.992188h-56.496094c-11.753906 0-21.71875-8.410157-23.691406-19.992188l-8.417969-49.363281c-1.265625-7.417969-7.40625-12.597656-14.933594-12.597656-7.527343 0-13.664062 5.179687-14.929687 12.597656l-8.417969 49.363281c-1.976562 11.582031-11.9375 19.992188-23.691406 19.992188h-56.496094c-11.753906 0-21.71875-8.410157-23.695312-19.992188l-8.417969-49.363281c-1.265625-7.417969-7.402344-12.597656-14.929687-12.597656-7.523438 0-13.664063 5.179687-14.929688 12.597656l-8.417969 49.363281c-1.976562 11.582031-11.941406 19.992188-23.691406 19.992188h-56.5c-11.75 0-21.714844-8.410157-23.691406-19.992188l-19.746094-115.777343h444.53125zm38.542969-130.714843h-482.125v-37.082032h9.652344c.050781 0 .097656.007813.148437.007813h154.15625.011719.015625 154.15625.015625.011719 154.15625c.050781 0 .097656-.007813.148437-.007813h9.652344zm0 0"/></svg>