<?xml version="1.0" encoding="iso-8859-1"?>
<!-- Generator: Adobe Illustrator 19.0.0, SVG Export Plug-In . SVG Version: 6.00 Build 0)  -->
<svg version="1.1" id="Layer_1" xmlns="http://www.w3.org/2000/svg" xmlns:xlink="http://www.w3.org/1999/xlink" x="0px" y="0px"
	 viewBox="0 0 512 512" style="enable-background:new 0 0 512 512;" xml:space="preserve">
<path style="fill:#5AAAE7;" d="M346.156,7.604H193.398c-11.165,0-20.3,6.863-20.3,15.251v30.75c0,8.388,9.135,15.251,20.3,15.251
	h152.758c11.165,0,20.3-6.863,20.3-15.251v-30.75C366.455,14.467,357.321,7.604,346.156,7.604z"/>
<path style="fill:#96C8EF;" d="M174.45,48.975c0,0-12.216-0.382-19.263,8.617L73.779,159.769l156.578,37.771l122.928-18.485
	l13.171-130.077L174.45,48.975z"/>
<g>
	<path style="fill:#5AAAE7;" d="M168.902,96.786c-1.662,0-3.334-0.541-4.734-1.657c-3.284-2.617-3.825-7.401-1.209-10.686
		l7.801-9.791c2.619-3.285,7.402-3.824,10.686-1.209c3.284,2.617,3.825,7.401,1.209,10.686l-7.801,9.791
		C173.353,95.805,171.137,96.786,168.902,96.786z"/>
	<path style="fill:#5AAAE7;" d="M134.106,140.461c-1.662,0-3.333-0.541-4.734-1.657c-3.284-2.617-3.825-7.401-1.209-10.686
		l21.297-26.732c2.619-3.284,7.4-3.823,10.686-1.209c3.284,2.617,3.825,7.401,1.209,10.686l-21.298,26.732
		C138.556,139.48,136.342,140.461,134.106,140.461z"/>
</g>
<path style="fill:#D1E7F8;" d="M82.527,155.5h245.741c6.134,0,11.152,5.019,11.152,11.152v326.591
	c0,6.134-5.019,11.152-11.152,11.152H82.527c-6.134,0-11.152-5.019-11.152-11.152V166.652C71.374,160.519,76.393,155.5,82.527,155.5
	z"/>
<rect x="71.376" y="367.119" style="fill:#96C8EF;" width="369.248" height="24.373"/>
<path style="fill:#5AAAE7;" d="M438.174,155.75L374.093,53.781c-1.916-3.048-4.701-4.801-7.632-4.804c-0.002,0-0.004,0-0.006,0
	c-2.929,0-5.714,1.748-7.63,4.792L294.743,155.5c-1.588,2.519-2.461,5.74-2.461,9.072v325.961c0,7.657,4.519,13.864,10.091,13.864
	h128.161c5.573,0,10.091-6.208,10.091-13.864V164.81C440.627,161.484,439.757,158.268,438.174,155.75z"/>
<path style="fill:#3D9AE2;" d="M366.455,48.978c-2.929,0-5.714,1.748-7.63,4.792L294.743,155.5c-1.588,2.519-2.461,5.74-2.461,9.072
	v325.961c0,7.657,4.519,13.864,10.091,13.864h64.081L366.455,48.978L366.455,48.978z"/>
<path style="fill:#96C8EF;" d="M294.743,155.5c-1.588,2.519-2.461,5.74-2.461,9.072v325.961c0,7.657,4.519,13.864,10.091,13.864
	h128.161c5.573,0,10.091-6.208,10.091-13.864V164.81c0-3.326-0.87-6.542-2.453-9.06L294.743,155.5z"/>
<rect x="292.287" y="367.119" style="fill:#5AAAE7;" width="148.348" height="24.373"/>
<rect x="71.376" y="247.433" style="fill:#006DF0;" width="369.248" height="119.686"/>
<rect x="292.287" y="247.433" style="fill:#00479B;" width="148.348" height="119.686"/>
<g>
	<path style="fill:#FFFFFF;" d="M142.786,340.967c-4.2,0-7.604-3.404-7.604-7.604v-28.821l-5.525,9.365
		c-1.355,2.296-3.812,3.715-6.478,3.74c-0.024,0-0.049,0-0.072,0c-2.639,0-5.091-1.369-6.476-3.617l-6.458-10.489v29.822
		c0,4.2-3.404,7.604-7.604,7.604c-4.2,0-7.604-3.404-7.604-7.604v-56.676c0-3.402,2.26-6.389,5.533-7.316
		c3.27-0.93,6.763,0.433,8.547,3.33l13.922,22.614l13.268-22.491c1.742-2.952,5.245-4.378,8.552-3.472
		c3.308,0.903,5.602,3.907,5.602,7.335v56.676C150.39,337.562,146.986,340.967,142.786,340.967z"/>
	<path style="fill:#FFFFFF;" d="M166.405,340.967c-4.2,0-7.604-3.404-7.604-7.604v-56.676c0-4.2,3.404-7.604,7.604-7.604
		c4.2,0,7.604,3.404,7.604,7.604v56.676C174.009,337.562,170.604,340.967,166.405,340.967z"/>
	<path style="fill:#FFFFFF;" d="M213.418,340.967h-23.995c-4.2,0-7.604-3.404-7.604-7.604v-56.676c0-4.2,3.404-7.604,7.604-7.604
		c4.2,0,7.604,3.404,7.604,7.604v49.072h16.391c4.2,0,7.604,3.404,7.604,7.604S217.619,340.967,213.418,340.967z"/>
	<path style="fill:#FFFFFF;" d="M272.909,329.307l-18.123-28.739l14.696-19.27c2.547-3.34,1.904-8.111-1.436-10.658
		s-8.112-1.904-10.658,1.436l-16.427,21.54v-16.929c0-4.2-3.404-7.604-7.604-7.604c-4.2,0-7.604,3.404-7.604,7.604v56.676
		c0,4.2,3.404,7.604,7.604,7.604c4.2,0,7.604-3.404,7.604-7.604v-14.668l3.983-5.223l15.099,23.946
		c1.446,2.293,6.855,4.9,10.487,2.376C273.981,337.398,275.149,332.859,272.909,329.307z"/>
</g>
<path d="M444.627,151.731c-0.006-0.009-0.01-0.018-0.015-0.027L380.531,49.735c-1.734-2.759-3.954-4.9-6.472-6.328V22.854
	C374.059,10.252,361.542,0,346.156,0H193.398c-15.386,0-27.902,10.252-27.902,22.854v19.724
	c-5.177,1.363-11.528,4.239-16.255,10.275L68.178,154.597c-0.12,0.142-0.231,0.289-0.346,0.434l0,0l0,0
	c-2.535,3.199-4.062,7.232-4.062,11.621v159.441c0,4.2,3.404,7.604,7.604,7.604s7.604-3.404,7.604-7.604V166.651
	c0-1.923,1.625-3.549,3.549-3.549h202.202c-0.027,0.489-0.05,327.429-0.05,327.429c0,2.188,0.264,4.286,0.743,6.261H82.526
	c-1.923,0-3.549-1.625-3.549-3.548V402.14c0-4.2-3.404-7.604-7.604-7.604s-7.604,3.404-7.604,7.604v91.104
	c0,10.342,8.414,18.756,18.756,18.756h348.009c9.923,0,17.696-9.43,17.696-21.468V164.81
	C448.232,160.083,446.951,155.44,444.627,151.731z M424.399,148.121l-115.895-0.203c0,0,57.857-91.305,57.907-91.338h0.013
	C366.548,56.614,424.399,148.121,424.399,148.121z M193.398,15.208h152.758c7.266,0,12.695,4.036,12.695,7.647v18.519
	l-178.149-0.002V22.854C180.702,19.244,186.131,15.208,193.398,15.208z M161.174,62.28c4.495-5.74,12.945-5.688,13.037-5.705
	c0.079,0.003,173.855,0.006,173.855,0.006l-57.519,91.314H92.962L161.174,62.28z M433.024,490.532c0,3.94-1.887,6.095-2.504,6.261
	H302.395c-0.61-0.154-2.508-2.31-2.508-6.261c0,0,0.031-326.943,0.094-327.419l132.948,0.232
	C432.99,163.824,433.024,490.532,433.024,490.532z"/>
<path d="M71.373,384.898c4.2,0,7.604-3.404,7.604-7.604V354.48c0-4.2-3.404-7.604-7.604-7.604s-7.604,3.404-7.604,7.604v22.814
	C63.769,381.494,67.174,384.898,71.373,384.898z"/>
<g>
</g>
<g>
</g>
<g>
</g>
<g>
</g>
<g>
</g>
<g>
</g>
<g>
</g>
<g>
</g>
<g>
</g>
<g>
</g>
<g>
</g>
<g>
</g>
<g>
</g>
<g>
</g>
<g>
</g>
</svg>
